<svg width="17" height="17" viewBox="0 0 17 17" fill="none" xmlns="http://www.w3.org/2000/svg">
<g clip-path="url(#clip0_1231_19)">
<path d="M17 8.5C17 3.80562 13.1944 0 8.5 0C3.80562 0 0 3.80562 0 8.5C0 12.4862 2.74448 15.8311 6.44674 16.7498V11.0976H4.69404V8.5H6.44674V7.38072C6.44674 4.48766 7.75608 3.1467 10.5964 3.1467C11.135 3.1467 12.0642 3.25244 12.4443 3.35784V5.71234C12.2437 5.69126 11.8952 5.68072 11.4624 5.68072C10.0688 5.68072 9.5302 6.20874 9.5302 7.58132V8.5H12.3066L11.8296 11.0976H9.5302V16.9378C13.7391 16.4295 17.0003 12.8459 17.0003 8.5H17Z" fill="white"/>
<path d="M11.8309 11.0993L12.3079 8.50174H9.53147V7.58306C9.53147 6.21048 10.07 5.68246 11.4637 5.68246C11.8965 5.68246 12.245 5.693 12.4456 5.71408V3.35958C12.0655 3.25384 11.1363 3.14844 10.5977 3.14844C7.75735 3.14844 6.44801 4.4894 6.44801 7.38246V8.50174H4.69531V11.0993H6.44801V16.7515C7.10557 16.9147 7.79339 17.0017 8.50127 17.0017C8.84977 17.0017 9.19351 16.9803 9.53113 16.9395V11.0993H11.8306H11.8309Z" fill="#010101"/>
</g>
<defs>
<clipPath id="clip0_1231_19">
<rect width="17" height="17" fill="white"/>
</clipPath>
</defs>
</svg>
