<svg width="52" height="52" viewBox="0 0 52 52" fill="none" xmlns="http://www.w3.org/2000/svg">
<rect width="51.9638" height="52" fill="white" fill-opacity="0.1"/>
<path d="M33.2037 29.2682L30.6637 28.9782C30.0537 28.9082 29.4537 29.1182 29.0237 29.5482L27.1837 31.3882C24.3537 29.9482 22.0337 27.6382 20.5937 24.7982L22.4437 22.9482C22.8737 22.5182 23.0837 21.9182 23.0137 21.3082L22.7237 18.7882C22.6037 17.7782 21.7537 17.0182 20.7337 17.0182H19.0037C17.8737 17.0182 16.9337 17.9582 17.0037 19.0882C17.5337 27.6282 24.3637 34.4482 32.8937 34.9782C34.0237 35.0482 34.9637 34.1082 34.9637 32.9782V31.2482C34.9737 30.2382 34.2137 29.3882 33.2037 29.2682Z" fill="white"/>
</svg>
