<svg width="52" height="52" viewBox="0 0 52 52" fill="none" xmlns="http://www.w3.org/2000/svg">
<rect width="51.9638" height="52" fill="#010101" fill-opacity="0.1"/>
<path d="M33.2037 29.2681L30.6637 28.9781C30.0537 28.9081 29.4537 29.1181 29.0237 29.5481L27.1837 31.3881C24.3537 29.9481 22.0337 27.6381 20.5937 24.7981L22.4437 22.9481C22.8737 22.5181 23.0837 21.9181 23.0137 21.3081L22.7237 18.7881C22.6037 17.7781 21.7537 17.0181 20.7337 17.0181H19.0037C17.8737 17.0181 16.9337 17.9581 17.0037 19.0881C17.5337 27.6281 24.3637 34.4481 32.8937 34.9781C34.0237 35.0481 34.9637 34.1081 34.9637 32.9781V31.2481C34.9737 30.2381 34.2137 29.3881 33.2037 29.2681V29.2681Z" fill="#010101"/>
</svg>
