<svg width="17" height="17" viewBox="0 0 17 17" fill="none" xmlns="http://www.w3.org/2000/svg">
<g clip-path="url(#clip0_1231_22)">
<path d="M16.6602 4.37781C16.5641 4.01615 16.3746 3.68607 16.1109 3.42061C15.8471 3.15515 15.5183 2.96363 15.1572 2.8652C13.8281 2.50781 8.51562 2.50781 8.51562 2.50781C8.51562 2.50781 3.20313 2.50781 1.87403 2.8652C1.51299 2.96363 1.18413 3.15515 0.92037 3.42061C0.656607 3.68607 0.467191 4.01615 0.37108 4.37781C0.015625 5.7127 0.015625 8.49645 0.015625 8.49645C0.015625 8.49645 0.015625 11.2802 0.37108 12.6151C0.467191 12.9767 0.656607 13.3068 0.92037 13.5723C1.18413 13.8377 1.51299 14.0293 1.87403 14.1277C3.20313 14.4851 8.51562 14.4851 8.51562 14.4851C8.51562 14.4851 13.8281 14.4851 15.1572 14.1277C15.5183 14.0293 15.8471 13.8377 16.1109 13.5723C16.3746 13.3068 16.5641 12.9767 16.6602 12.6151C17.0156 11.2802 17.0156 8.49645 17.0156 8.49645C17.0156 8.49645 17.0156 5.7127 16.6602 4.37781Z" fill="white"/>
<path d="M6.78125 11.0243V5.96875L11.2244 8.49653L6.78125 11.0243Z" fill="#010101"/>
</g>
<defs>
<clipPath id="clip0_1231_22">
<rect width="17" height="17" fill="white"/>
</clipPath>
</defs>
</svg>
